# xmcd
#
# Track frame offsets:
#	150
#	18972
#	34521
#	48804
#	66098
#	82689
#	97323
#	117709
#	134596
#	151195
#	167185
#	182957
#	202765
#	219861
#	241083
#
# Disc length: 3448 seconds
#
# Revision: 1
# Processed by: cddbd v1.5.2PL0 Copyright (c) Steve Scherf et al.
# Submitted via: audiograbber 1.83.01
#
DISCID=c00d760f
DTITLE=Brantley Gilbert - The Devil Don't Sleep
DYEAR=2017
DGENRE=Country
TTITLE0=Rockin' Chairs
TTITLE1=The Ones That Like Me
TTITLE2=The Weekend
TTITLE3=You Could Be That Girl
TTITLE4=Smokin' Gun
TTITLE5=Bro Code
TTITLE6=It's About To Get Dirty
TTITLE7=In My Head
TTITLE8=Way Back
TTITLE9=Baby Be Crazy
TTITLE10=Outlaw In Me
TTITLE11=Bullet In A Bonfire
TTITLE12=The Devil Don't Sleep
TTITLE13=We're Gonna Ride Again
TTITLE14=Three Feet of Water
EXTD=
EXTT0=
EXTT1=
EXTT2=
EXTT3=
EXTT4=
EXTT5=
EXTT6=
EXTT7=
EXTT8=
EXTT9=
EXTT10=
EXTT11=
EXTT12=
EXTT13=
EXTT14=
PLAYORDER=
